<svg xmlns="http://www.w3.org/2000/svg" width="256" height="256" viewBox="0 0 100 100"><rect width="100" height="100" rx="20" fill="#7d6ee7"></rect><path d="M13.46 71.38L13.46 71.38Q10.38 71.38 10.38 68.86L10.38 68.86L10.38 29.31Q11.64 28.05 14.16 28.05L14.16 28.05Q15.84 28.05 17.03 28.72Q18.22 29.38 19.20 31.13L19.20 31.13L32.57 53.53Q33.41 55.00 34.32 56.65Q35.23 58.29 36.07 59.94Q36.91 61.58 37.65 63.02Q38.38 64.45 38.87 65.44L38.87 65.44L39.15 65.36Q38.59 59.69 38.48 53.95Q38.38 48.21 38.38 42.75L38.38 42.75L38.38 28.61Q38.80 28.47 39.50 28.30Q40.20 28.12 41.04 28.12L41.04 28.12Q44.12 28.12 44.12 30.64L44.12 30.64L44.12 70.27Q43.49 70.83 42.51 71.14Q41.53 71.45 40.34 71.45L40.34 71.45Q38.66 71.45 37.47 70.79Q36.28 70.13 35.30 68.38L35.30 68.38L22.00 45.97Q21.16 44.57 20.22 42.89Q19.27 41.21 18.40 39.60Q17.52 37.99 16.79 36.52Q16.05 35.05 15.56 34.07L15.56 34.07L15.28 34.14Q15.63 37.50 15.84 41.81Q16.05 46.11 16.05 49.96L16.05 49.96L16.05 70.89Q15.70 71.03 14.97 71.21Q14.23 71.38 13.46 71.38ZM89.62 56.33L89.62 56.33Q89.62 59.90 88.54 62.77Q87.45 65.64 85.32 67.67Q83.18 69.70 80.10 70.83Q77.02 71.94 73.03 71.94L73.03 71.94Q69.04 71.94 65.96 70.83Q62.88 69.70 60.78 67.67Q58.68 65.64 57.60 62.77Q56.51 59.90 56.51 56.33L56.51 56.33L56.51 28.61Q56.86 28.47 57.60 28.30Q58.33 28.12 59.17 28.12L59.17 28.12Q62.18 28.12 62.18 30.71L62.18 30.71L62.18 55.84Q62.18 58.64 63.02 60.74Q63.86 62.84 65.30 64.28Q66.73 65.72 68.73 66.41Q70.72 67.11 73.03 67.11L73.03 67.11Q75.34 67.11 77.34 66.41Q79.33 65.72 80.77 64.28Q82.20 62.84 83.04 60.74Q83.88 58.64 83.88 55.84L83.88 55.84L83.88 28.61Q84.23 28.47 84.97 28.30Q85.70 28.12 86.54 28.12L86.54 28.12Q89.62 28.12 89.62 30.71L89.62 30.71L89.62 56.33Z" fill="#ffffff"></path></svg>